<svg xmlns="http://www.w3.org/2000/svg" version="1.1" xmlns:xlink="http://www.w3.org/1999/xlink" xmlns:svgjs="http://svgjs.dev/svgjs" width="100%" height="100%" viewBox="0 0 1000 600"><rect width="1000" height="600" x="0" y="0" fill="#0000"/><g><circle r="166.66666666666666" cx="433.54618326822913" cy="455.76838949725027" fill="#220055" transform="matrix(0.46837621953915565,0,0,0.46837621953915565,0,86.52893142135102)"/><path d="M337.48591023190176 530.768402984434L320.11907606104745 530.768402984434L361.1241011866756 380.76840298443403L398.6919403826555 380.76840298443403L439.51606098567055 530.768402984434L422.1492268148163 530.768402984434L411.5060107344143 492.77845323569034L348.0989755585349 492.77845323569034L337.48591023190176 530.768402984434ZM374.1492268148163 395.51212157739883L351.80751827210275 477.37141805981094L407.79746802084645 477.37141805981094L385.4557594781329 395.51212157739883L374.1492268148163 395.51212157739883ZM476.84269415149976 530.768402984434L460.13917656356006 530.768402984434L460.13917656356006 422.22568941659483L476.84269415149976 422.22568941659483L476.84269415149976 429.8236793663436Q480.52108611129876 427.6528250949868 486.06882480476605 425.48197082363Q491.6165634982334 423.31111655227323 497.887920282153 421.68297584875563Q504.18942781984146 420.05483514523803 510.06882480476605 420.05483514523803L510.06882480476605 420.05483514523803Q521.3452067143139 420.05483514523803 528.5210861112987 422.97945826081593Q535.6668147545149 425.90408137639383 539.6768650057711 432.32619192915763Q543.7170660107963 438.71815172815263 545.3452067143139 448.81865424071543Q546.9733474178315 458.91915675327823 546.9733474178315 473.24076479347923L546.9733474178315 473.24076479347923L546.9733474178315 530.768402984434L530.0286237997409 530.768402984434L530.0286237997409 473.90408137639383Q530.0286237997409 459.79352861257473 528.4004830962233 451.32116680352954Q526.7723423927059 442.8488049944843 521.8879202821531 439.0498100196099Q517.0034981716003 435.25081504473553 507.0235986741128 435.25081504473553L507.0235986741128 435.25081504473553Q501.59646299572086 435.25081504473553 495.83766902587155 436.45684519548934Q490.07887505602235 437.63272459247423 485.10400068416305 439.47192057237373Q480.0989755585349 441.3412673060421 476.84269415149976 443.0598602708662L476.84269415149976 443.0598602708662L476.84269415149976 530.768402984434Z " fill="#ffffff" transform="matrix(0.46837621953915565,0,0,0.46837621953915565,0,86.52893142135102)"/><path d="M700.0536577555396 528.7049534852931L683.5462077266851 528.7049534852931L722.5221314059247 386.1275856145456L758.2309556002868 386.1275856145456L797.0349266750591 528.7049534852931L780.5274766462047 528.7049534852931L770.4109317500491 492.5949065471741L710.1415438842839 492.5949065471741L700.0536577555396 528.7049534852931ZM734.9027189275655 400.1417228786251L713.6665722758622 477.9502764000481L766.8859033584708 477.9502764000481L745.6497567067676 400.1417228786251L734.9027189275655 400.1417228786251ZM832.5144807301315 528.7049534852931L816.6375235843236 528.7049534852931L816.6375235843236 425.5333908049532L832.5144807301315 425.5333908049532L832.5144807301315 432.755400192577Q836.0108503542986 430.6919689389702 841.2840635579604 428.62853768536337Q846.5572767616222 426.5651064317566 852.5183003831529 425.0175329915515Q858.5079827720949 423.4699595513464 864.09644241728 423.4699595513464L864.09644241728 423.4699595513464Q874.8148214290709 423.4699595513464 881.6356080729378 426.24985999023335Q888.4277359493935 429.0297604291203 892.2393520150839 435.13407788770706Q896.0796268481854 441.2097365788826 897.6272002883904 450.8104236616365Q899.1747737285956 460.4111107443903 899.1747737285956 474.024025264713L899.1747737285956 474.024025264713L899.1747737285956 528.7049534852931L883.0685464434981 528.7049534852931L883.0685464434981 474.65451814775946Q883.0685464434981 461.2422149993153 881.520973003293 453.1891013567665Q879.9733995630879 445.1359877142178 875.3306792424726 441.5249830204059Q870.6879589218573 437.913978326594 861.2019069087482 437.913978326594L861.2019069087482 437.913978326594Q856.0433287747312 437.913978326594 850.569504199191 439.0603290230422Q845.0956796236508 440.17802095207924 840.3669830008018 441.9262057641628Q835.6096276105417 443.7030493436575 832.5144807301315 445.3365990860962L832.5144807301315 445.3365990860962L832.5144807301315 528.7049534852931ZM960.2466070818745 530.7683847388998L960.2466070818745 530.7683847388998Q954.0563133210541 530.7683847388998 948.467853675869 529.4214226705733Q942.9080527980951 528.0744606022465 938.2653324774799 524.7787023499579Q933.6226121568646 521.4829440976694 930.1262425326976 515.6078967783722Q926.6012141411193 509.73284945907506 924.7383942593909 500.44740881784446Q922.9042331450738 491.16196817661387 922.9042331450738 477.9502764000481L922.9042331450738 477.9502764000481Q922.9042331450738 459.58000648946535 927.2317070241658 447.51466540934786Q931.5591809032578 435.4493243292303 941.0452329163669 429.45964194028835Q950.5312849294759 423.4699595513464 966.2362894708165 423.4699595513464L966.2362894708165 423.4699595513464Q970.1338818387404 423.4699595513464 974.8912372290006 423.87118229510327Q979.6485926192607 424.3010638062714 984.0620428005863 424.9028979219067Q988.5041517493231 425.5333908049532 991.1980758859766 426.1638836879997L991.1980758859766 426.1638836879997L991.1980758859766 380.76839610865017L1007.2756444036628 380.76839610865017L1007.2756444036628 528.7049534852931L991.3986872578549 528.7049534852931L991.3986872578549 521.8841668414261Q988.1029290055664 523.7469867231546 982.8297158019045 525.8104179767613Q977.5851613656539 527.8738492303681 971.6814552789456 529.3354463683396Q965.8064079596485 530.7683847388998 960.2466070818745 530.7683847388998ZM962.3100383354814 516.3243659636523L962.3100383354814 516.3243659636523Q967.6692278413767 516.3243659636523 973.143052416917 515.0920389649705Q978.6168769924574 513.8597119662886 983.3455736153062 512.082868386794Q988.1029290055664 510.33468357471037 991.1980758859766 508.9017452041501L991.1980758859766 508.9017452041501L991.1980758859766 439.77679820832236Q988.7047631212016 439.34691669715426 984.3772892421097 438.8310588837526Q980.0498153630176 438.3152010703509 975.4070950424023 437.913978326594Q970.764374721787 437.5127555828371 967.0387349583303 437.5127555828371L967.0387349583303 437.5127555828371Q956.5209673184178 437.5127555828371 950.5312849294759 442.0408408338076Q944.5702613079451 446.56892608477807 941.9909722409367 455.5677790518966Q939.411683173928 464.53797325160394 939.411683173928 477.9502764000481L939.411683173928 477.9502764000481Q939.411683173928 490.3308639216889 941.2458442882453 497.86811975083594Q943.1086641699736 505.3767168125718 946.3184461200286 509.41760301755176Q949.4995693026725 513.4298304551205 953.6264318098862 514.891427593092Q957.7532943170996 516.3243659636523 962.3100383354814 516.3243659636523ZM1076.62986153878 530.7683847388998L1076.62986153878 530.7683847388998Q1059.291307255001 530.7683847388998 1049.6906201722472 524.7787023499579Q1040.0899330894931 518.789019961016 1036.278317023803 506.63770257866486Q1032.4667009581126 494.4577264289025 1032.4667009581126 475.8868451464413L1032.4667009581126 475.8868451464413Q1032.4667009581126 458.1470681189051 1036.6795397675596 446.56892608477807Q1040.921037344418 435.01944281806226 1050.6077007294057 429.2590305684099Q1060.3230228818043 423.4699595513464 1076.62986153878 423.4699595513464L1076.62986153878 423.4699595513464Q1093.1373115676347 423.4699595513464 1102.823974952622 429.2590305684099Q1112.5106383376096 435.01944281806226 1116.752135914468 446.56892608477807Q1120.9936334913264 458.1470681189051 1120.9936334913264 475.8868451464413L1120.9936334913264 475.8868451464413Q1120.9936334913264 494.4577264289025 1117.153358658225 506.63770257866486Q1113.3417425925345 518.789019961016 1103.7410555097808 524.7787023499579Q1094.169027194438 530.7683847388998 1076.62986153878 530.7683847388998ZM1076.62986153878 516.9548588466988L1076.62986153878 516.9548588466988Q1088.580567549253 516.9548588466988 1094.570249938195 512.7133612698404Q1100.5599323271367 508.47186369298197 1102.508728511099 499.41569319104104Q1104.4861834624721 490.3308639216889 1104.4861834624721 475.8868451464413L1104.4861834624721 475.8868451464413Q1104.4861834624721 461.6434377430722 1101.992870697697 453.1891013567665Q1099.5282167003334 444.7347649704609 1093.5385343113917 441.00912520700416Q1087.5488519224496 437.2834854435475 1076.62986153878 437.2834854435475L1076.62986153878 437.2834854435475Q1065.882823759578 437.2834854435475 1059.8071650684024 441.00912520700416Q1053.7028476098158 444.7347649704609 1051.238193612452 453.1891013567665Q1048.7735396150883 461.6434377430722 1048.7735396150883 475.8868451464413L1048.7735396150883 475.8868451464413Q1048.7735396150883 490.3308639216889 1050.7223357990506 499.41569319104104Q1052.6711319830124 508.47186369298197 1058.6608143719545 512.7133612698404Q1064.6504967608962 516.9548588466988 1076.62986153878 516.9548588466988ZM1162.0329884241728 528.7049534852931L1146.156031278365 528.7049534852931L1146.156031278365 425.5333908049532L1162.0329884241728 425.5333908049532L1162.0329884241728 432.755400192577Q1165.5580168157508 430.6919689389702 1170.8025712520016 428.62853768536337Q1176.0757844556633 426.5651064317566 1182.0654668446055 425.0175329915515Q1188.0551492335471 423.4699595513464 1193.6149501113214 423.4699595513464L1193.6149501113214 423.4699595513464Q1204.333329123112 423.4699595513464 1211.154115766979 426.24985999023335Q1217.974902410846 429.0297604291203 1221.7865184765365 435.13407788770706Q1225.5981345422265 441.2097365788826 1227.1457079824318 450.8104236616365Q1228.6932814226366 460.4111107443903 1228.6932814226366 474.024025264713L1228.6932814226366 474.024025264713L1228.6932814226366 528.7049534852931L1212.5870541375393 528.7049534852931L1212.5870541375393 474.65451814775946Q1212.5870541375393 461.2422149993153 1211.039480697334 453.1891013567665Q1209.4919072571292 445.1359877142178 1204.849186936514 441.5249830204059Q1200.2064666158985 437.913978326594 1190.7204146027893 437.913978326594L1190.7204146027893 437.913978326594Q1185.5618364687725 437.913978326594 1180.0880118932323 439.0603290230422Q1174.642846085103 440.17802095207924 1169.8854906948432 441.9262057641628Q1165.1281353045829 443.7030493436575 1162.0329884241728 445.3365990860962L1162.0329884241728 445.3365990860962L1162.0329884241728 528.7049534852931ZM1273.057053375183 528.7049534852931L1257.180096229375 528.7049534852931L1257.180096229375 425.5333908049532L1273.057053375183 425.5333908049532L1273.057053375183 528.7049534852931ZM1273.057053375183 402.8356470152784L1257.180096229375 402.8356470152784L1257.180096229375 384.26476573281724L1273.057053375183 384.26476573281724L1273.057053375183 402.8356470152784ZM1325.2733275983996 530.7683847388998L1325.2733275983996 530.7683847388998Q1311.0299201950302 530.7683847388998 1303.6072994355281 522.7152710963511Q1296.1560199086148 514.6621574538024 1296.1560199086148 499.1864230517514L1296.1560199086148 499.1864230517514Q1296.1560199086148 489.09853692300703 1299.6810483001927 482.678973022897Q1303.1774179243598 476.2880678901982 1310.3134510097502 472.87767456826475Q1317.4208253277293 469.4959400137425 1327.9385929676414 468.6648357588175L1327.9385929676414 468.6648357588175L1359.7211660266685 465.5696888784073L1359.7211660266685 456.6854709809336Q1359.7211660266685 446.1677033410212 1355.0784457060531 441.84022946192914Q1350.4357253854378 437.5127555828371 1341.3508961160856 437.5127555828371L1341.3508961160856 437.5127555828371Q1336.1923179820687 437.5127555828371 1329.0849436640897 437.913978326594Q1321.9489105786997 438.3152010703509 1314.9561713303656 438.9456939533974Q1307.93477331462 439.5761868364439 1302.5755838087248 440.17802095207924L1302.5755838087248 440.17802095207924L1301.7444795538 427.9980448023169Q1306.7024463159382 426.96632917551347 1313.6951855642724 425.9346135487101Q1320.7165835800179 424.9028979219067 1328.3684744788097 424.18642873662657Q1335.9917066101902 423.4699595513464 1342.3826117428894 423.4699595513464L1342.3826117428894 423.4699595513464Q1354.1613651488947 423.4699595513464 1361.5839859083967 427.08096424515827Q1369.0066066678992 430.6919689389702 1372.4169999898327 438.0286133962388Q1375.8273933117662 445.3365990860962 1375.8273933117662 456.6854709809336L1375.8273933117662 456.6854709809336L1375.8273933117662 508.9017452041501Q1376.2286160555232 513.4298304551205 1379.4383980055777 515.4932617087273Q1382.6195211882218 517.5566929623342 1387.5774879503601 518.1871858453807L1387.5774879503601 518.1871858453807L1386.9469950673138 530.7683847388998Q1384.081118326193 530.7683847388998 1381.38719418954 530.5677733670215Q1378.6932700528864 530.3671619951431 1376.3432511251676 529.8513041817414Q1373.9645734300375 529.3354463683396 1371.7005308045523 528.7049534852931L1371.7005308045523 528.7049534852931Q1369.0066066678992 527.6732378584898 1366.627928972769 526.2402994879294Q1364.249251277639 524.7787023499579 1361.9852086521537 522.7152710963511L1361.9852086521537 522.7152710963511Q1358.0589575168187 524.3774796062011 1351.983298825643 526.2402994879294Q1345.9076401344673 528.0744606022465 1338.9722184209559 529.4214226705733Q1332.0654554748548 530.7683847388998 1325.2733275983996 530.7683847388998ZM1327.9385929676414 517.3560815904557L1327.9385929676414 517.3560815904557Q1333.5270526128265 517.3560815904557 1339.4880762343573 516.3243659636523Q1345.4777586232995 515.292650336849 1350.8369481291948 513.8597119662886Q1356.2247964025014 512.3981148283171 1359.7211660266685 511.1657878296353L1359.7211660266685 511.1657878296353L1359.7211660266685 477.52039488888005L1329.80141284937 480.4149303974118Q1320.5159722081394 481.24603465233673 1316.5037447705704 485.7741199033072Q1312.4628585655905 490.3308639216889 1312.4628585655905 498.7852003079945L1312.4628585655905 498.7852003079945Q1312.4628585655905 507.4401480661786 1316.389109700926 512.3981148283171Q1320.3153608362609 517.3560815904557 1327.9385929676414 517.3560815904557ZM1422.2545965179193 528.7049534852931L1406.3489806047 528.7049534852931L1406.3489806047 425.5333908049532L1422.2545965179193 425.5333908049532L1422.2545965179193 528.7049534852931ZM1422.2545965179193 402.8356470152784L1406.3489806047 402.8356470152784L1406.3489806047 384.26476573281724L1422.2545965179193 384.26476573281724L1422.2545965179193 402.8356470152784ZM1467.850695469147 528.7049534852931L1451.9450795559278 528.7049534852931L1451.9450795559278 425.5333908049532L1467.850695469147 425.5333908049532L1467.850695469147 432.755400192577Q1471.347065093314 430.6919689389702 1476.6202782969758 428.62853768536337Q1481.8648327332266 426.5651064317566 1487.8545151221683 425.0175329915515Q1493.8441975111105 423.4699595513464 1499.4039983888842 423.4699595513464L1499.4039983888842 423.4699595513464Q1510.1510361680862 423.4699595513464 1516.9431640445418 426.24985999023335Q1523.7639506884088 429.0297604291203 1527.5755667540993 435.13407788770706Q1531.3871828197894 441.2097365788826 1532.9347562599946 450.8104236616365Q1534.4823297002 460.4111107443903 1534.4823297002 474.024025264713L1534.4823297002 474.024025264713L1534.4823297002 528.7049534852931L1518.4047611825135 528.7049534852931L1518.4047611825135 474.65451814775946Q1518.4047611825135 461.2422149993153 1516.8571877423083 453.1891013567665Q1515.3096143021035 445.1359877142178 1510.666893981488 441.5249830204059Q1506.0241736608727 437.913978326594 1496.5381216477635 437.913978326594L1496.5381216477635 437.913978326594Q1491.3795435137467 437.913978326594 1485.9057189382065 439.0603290230422Q1480.4318943626663 440.17802095207924 1475.674538972406 441.9262057641628Q1470.945842349557 443.7030493436575 1467.850695469147 445.3365990860962L1467.850695469147 445.3365990860962L1467.850695469147 528.7049534852931ZM1585.4662769247343 530.7683847388998L1585.4662769247343 530.7683847388998Q1571.2228695213653 530.7683847388998 1563.8002487618633 522.7152710963511Q1556.3776280023608 514.6621574538024 1556.3776280023608 499.1864230517514L1556.3776280023608 499.1864230517514Q1556.3776280023608 489.09853692300703 1559.8739976265279 482.678973022897Q1563.370367250695 476.2880678901982 1570.5064003360849 472.87767456826475Q1577.613774654064 469.4959400137425 1588.1315422939765 468.6648357588175L1588.1315422939765 468.6648357588175L1619.9141153530036 465.5696888784073L1619.9141153530036 456.6854709809336Q1619.9141153530036 446.1677033410212 1615.2713950323882 441.84022946192914Q1610.6286747117729 437.5127555828371 1601.5438454424207 437.5127555828371L1601.5438454424207 437.5127555828371Q1596.3852673084039 437.5127555828371 1589.2778929904248 437.913978326594Q1582.1705186724457 438.3152010703509 1575.1491206567002 438.9456939533974Q1568.1277226409552 439.5761868364439 1562.76853313506 440.17802095207924L1562.76853313506 440.17802095207924L1561.9374288801346 427.9980448023169Q1566.8953956422733 426.96632917551347 1573.9167936580184 425.9346135487101Q1580.9095329063525 424.9028979219067 1588.5614238051448 424.18642873662657Q1596.1846559365254 423.4699595513464 1602.575561069224 423.4699595513464L1602.575561069224 423.4699595513464Q1614.3543144752298 423.4699595513464 1621.7769352347318 427.08096424515827Q1629.1995559942338 430.6919689389702 1632.6099493161673 438.0286133962388Q1636.0203426381008 445.3365990860962 1636.0203426381008 456.6854709809336L1636.0203426381008 456.6854709809336L1636.0203426381008 508.9017452041501Q1636.4215653818578 513.4298304551205 1639.6313473319128 515.4932617087273Q1642.812470514557 517.5566929623342 1647.7704372766952 518.1871858453807L1647.7704372766952 518.1871858453807L1647.1686031610598 530.7683847388998Q1644.2740676525282 530.7683847388998 1641.580143515875 530.5677733670215Q1638.9148781466329 530.3671619951431 1636.5362004515027 529.8513041817414Q1634.1575227563726 529.3354463683396 1631.8934801308874 528.7049534852931L1631.8934801308874 528.7049534852931Q1629.1995559942338 527.6732378584898 1626.8208782991042 526.2402994879294Q1624.4708593713854 524.7787023499579 1622.1781579784888 522.7152710963511L1622.1781579784888 522.7152710963511Q1618.2805656105647 524.3774796062011 1612.1762481519781 526.2402994879294Q1606.1005894608024 528.0744606022465 1599.1938265147019 529.4214226705733Q1592.25840480119 530.7683847388998 1585.4662769247343 530.7683847388998ZM1588.1315422939765 517.3560815904557L1588.1315422939765 517.3560815904557Q1593.7200019391616 517.3560815904557 1599.7096843281033 516.3243659636523Q1605.6707079496346 515.292650336849 1611.0585562229412 513.8597119662886Q1616.4177457288365 512.3981148283171 1619.9141153530036 511.1657878296353L1619.9141153530036 511.1657878296353L1619.9141153530036 477.52039488888005L1589.9943621757047 480.4149303974118Q1580.7089215344745 481.24603465233673 1576.6966940969055 485.7741199033072Q1572.6558078919256 490.3308639216889 1572.6558078919256 498.7852003079945L1572.6558078919256 498.7852003079945Q1572.6558078919256 507.4401480661786 1576.5820590272606 512.3981148283171Q1580.508310162596 517.3560815904557 1588.1315422939765 517.3560815904557ZM1730.9381803040137 528.7049534852931L1714.4307302751595 528.7049534852931L1714.4307302751595 386.1275856145456L1745.1815877073832 386.1275856145456L1798.8308003011598 514.0603233381671L1802.9576628083732 514.0603233381671L1802.9576628083732 386.1275856145456L1819.4651128372275 386.1275856145456L1819.4651128372275 528.7049534852931L1789.3160895206393 528.7049534852931L1734.8644314393487 400.77221576167165L1730.9381803040137 400.77221576167165L1730.9381803040137 528.7049534852931ZM1868.1563586688658 528.7049534852931L1850.6171930132082 528.7049534852931L1850.6171930132082 504.574271325058L1868.1563586688658 504.574271325058L1868.1563586688658 528.7049534852931Z " fill="#ffffff" transform="matrix(0.46837621953915565,0,0,0.46837621953915565,0,86.52893142135102)"/></g></svg>